<svg xmlns="http://www.w3.org/2000/svg" xml:space="preserve" width="210mm" height="82.3408mm" style="shape-rendering:geometricPrecision; text-rendering:geometricPrecision; image-rendering:optimizeQuality; fill-rule:evenodd; clip-rule:evenodd"
viewBox="0 0 21000 8234"
 xmlns:xlink="http://www.w3.org/1999/xlink">
 <defs>
  <style type="text/css">
   <![CDATA[
    .fil1 {fill:#356EB5}
    .fil0 {fill:#57B43E}
    .fil2 {fill:#ffffff}
   ]]>
  </style>
 </defs>
 <g id="Capa_x0020_1">
  <metadata id="CorelCorpID_0Corel-Layer"/>
  <path class="fil0" d="M4018 8113l-3454 -2247c0,0 -433,-249 -532,-712 -139,-651 320,-1209 320,-1209l4483 2917c346,225 440,686 218,1033 -228,357 -698,436 -1034,218z"/>
  <path class="fil1" d="M746 3464c0,0 -529,-319 -529,-1057 0,-736 529,-1051 529,-1051l1888 -1235c346,-225 809,-127 1034,219 225,346 127,808 -219,1033l-1592 1035 2712 1764c0,0 488,279 584,751 134,658 -319,1200 -319,1200l-4088 -2660z"/>
  <path class="fil0" d="M4301 1672c-177,0 -304,56 -427,136l-922 600 922 600c124,80 255,136 427,136 407,0 736,-329 736,-736 0,-406 -330,-736 -736,-736z"/>
  <path class="fil1" d="M736 8232c177,0 304,-56 427,-136l922 -600 -922 -600c-124,-80 -255,-136 -427,-136 -407,0 -736,329 -736,736 0,406 330,736 736,736z"/>
  <path class="fil2" d="M20729 3978l271 165 0 1978 -271 0 0 -279c-132,195 -344,314 -598,314 -476,0 -816,-353 -816,-835 0,-492 340,-852 816,-852 254,0 466,122 598,320l0 -810zm-6905 -1l0 0 268 165 0 1437c0,228 139,317 314,317 132,0 264,-36 380,-119l0 261c-112,83 -268,116 -403,116 -347,0 -558,-155 -558,-594l0 -1583zm4532 486l0 0c469,0 777,347 777,812 0,46 -3,92 -10,135l-1285 0c40,294 271,489 595,489 208,0 410,-59 582,-182l0 257c-175,119 -373,175 -582,175 -512,0 -879,-330 -879,-829 0,-489 311,-858 803,-858zm-6879 0l0 0c254,0 463,119 598,314l0 -284 271 0 0 1628 -271 0 0 -277c-135,191 -344,307 -598,307 -476,0 -816,-353 -816,-835 0,-492 340,-852 816,-852zm-3360 0l0 0c195,0 377,56 522,165l0 300c-129,-139 -307,-211 -506,-211 -347,0 -592,241 -592,588 0,347 248,591 595,591 195,0 377,-53 519,-175l0 274c-159,109 -347,155 -545,155 -499,0 -846,-347 -846,-845 0,-495 357,-842 852,-842zm7484 0l0 0c469,0 777,347 777,812 0,46 -3,92 -10,135l-1285 0c40,294 271,489 595,489 208,0 410,-59 582,-182l0 257c-175,119 -373,175 -582,175 -512,0 -879,-330 -879,-829 0,-489 311,-858 803,-858zm-6648 -486l0 0 268 165 0 628c122,-188 317,-307 565,-307 410,0 628,300 628,700l0 957 -271 0 0 -911c0,-317 -139,-485 -423,-485 -301,0 -499,257 -499,581l0 815 -268 0 0 -2143zm4672 486l0 0 0 307c-324,-46 -595,172 -595,574l0 776 -268 0 0 -1628 268 0 0 347c129,-241 337,-376 595,-376zm3909 0l0 0 0 307c-324,-46 -595,172 -595,574l0 776 -268 0 0 -1628 268 0 0 347c129,-241 337,-376 595,-376zm2624 259l0 0c-330,0 -565,251 -565,594 0,337 235,584 565,584 334,0 572,-248 572,-584 0,-343 -238,-594 -572,-594zm-8655 -4l0 0c-330,0 -565,251 -565,594 0,337 235,584 565,584 334,0 572,-248 572,-584 0,-343 -238,-594 -572,-594zm4101 -7l0 0c-297,0 -476,208 -519,482l1008 0c-26,-277 -202,-482 -489,-482zm2756 0l0 0c-297,0 -476,208 -519,482l1008 0c-26,-277 -202,-482 -489,-482zm-4059 -241l0 0c69,-44 157,-43 225,2l270 179 -266 171c-68,43 -155,44 -223,0l-6 -4c-127,-81 -127,-267 0,-348zm-3775 -2386l0 0c254,0 462,119 598,314l0 -284 271 0 0 1627 -271 0 0 -277c-135,191 -344,307 -598,307 -476,0 -816,-353 -816,-835 0,-492 340,-852 816,-852zm-1593 -492l0 0 0 1604c0,228 139,317 314,317 132,0 264,-36 380,-119l0 261c-112,83 -268,116 -403,116 -347,0 -558,-155 -558,-594l0 -1419 268 -165zm11228 0l0 0 0 2149 -271 0 0 -284c-132,195 -344,314 -598,314 -476,0 -816,-353 -816,-835 0,-492 340,-852 816,-852 254,0 466,122 598,320l0 -647 271 -165zm-3850 492l0 0c254,0 463,119 598,314l0 -284 271 0 0 1627 -271 0 0 -277c-135,191 -344,307 -598,307 -476,0 -816,-353 -816,-835 0,-492 340,-852 816,-852zm-8462 0l0 0c192,0 370,53 496,149l0 281c-149,-132 -330,-208 -492,-208 -172,0 -294,79 -294,211 0,99 46,158 175,208l387 155c208,89 304,215 304,390 0,310 -251,502 -605,502 -215,0 -410,-59 -552,-165l0 -291c172,162 363,234 555,234 192,0 330,-83 330,-231 0,-89 -46,-158 -168,-208l-387 -155c-198,-86 -307,-198 -307,-409 0,-284 228,-462 558,-462zm7355 -492l0 0 0 2149 -271 0 0 -284c-132,195 -344,314 -598,314 -476,0 -816,-353 -816,-835 0,-492 340,-852 816,-852 254,0 466,122 598,320l0 -647 271 -165zm3255 492l0 0 0 307c-324,-46 -595,172 -595,574l0 776 -268 0 0 -1627 268 0 0 347c129,-241 337,-376 595,-376zm-5815 0l0 0c410,0 628,300 628,700l0 957 -271 0 0 -911c0,-317 -139,-485 -423,-485 -301,0 -499,258 -499,581l0 815 -268 0 0 -1627 268 0 0 277c122,-188 317,-307 565,-307zm-2092 254l0 0c-330,0 -565,251 -565,594 0,337 235,584 565,584 334,0 572,-248 572,-584 0,-343 -238,-594 -572,-594zm3810 0l0 0c-330,0 -565,251 -565,594 0,337 235,584 565,584 334,0 572,-248 572,-584 0,-343 -238,-594 -572,-594zm4957 0l0 0c-330,0 -565,251 -565,594 0,337 235,584 565,584 334,0 572,-248 572,-584 0,-343 -238,-594 -572,-594zm-2981 0l0 0c-330,0 -565,251 -565,594 0,337 235,584 565,584 334,0 572,-248 572,-584 0,-343 -238,-594 -572,-594zm-7032 -227l0 0c68,-44 155,-44 223,-1l6 4c128,81 128,267 1,348 -69,44 -157,43 -225,-1l-270 -179 266 -171z"/>
 </g>
</svg>
